<svg xmlns="http://www.w3.org/2000/svg" viewBox="0 0 320 180" role="img" aria-label="Excess Liquidity chart thumbnail">
  <rect width="320" height="180" rx="8" fill="#fff"/>
  <path d="M0 45h320M0 90h320M0 135h320" stroke="#e5e7eb"/>
  <path d="M0 100h320" stroke="#9ca3af" stroke-width="1.5" stroke-dasharray="6 5"/>
  <path d="M0 126C45 110 75 68 114 64C154 60 184 114 224 112C264 110 286 78 320 72" fill="none" stroke="#111827" stroke-width="3.3"/>
  <path d="M0 96C30 118 54 136 86 126C120 116 134 74 168 68C202 62 220 96 250 112C280 128 300 112 320 98" fill="none" stroke="#f59e0b" stroke-width="3.6"/>
</svg>
