<svg xmlns="http://www.w3.org/2000/svg" viewBox="0 0 800 360">
  <rect x="0" y="0"   width="800" height="90"  fill="rgba(239,68,68,0.18)"/>
  <rect x="0" y="90"  width="800" height="180" fill="rgba(234,179,8,0.07)"/>
  <rect x="0" y="270" width="800" height="90"  fill="rgba(34,197,94,0.18)"/>
  <line x1="0" y1="90"  x2="800" y2="90"  stroke="#e8eeea" stroke-width="1"/>
  <line x1="0" y1="270" x2="800" y2="270" stroke="#e8eeea" stroke-width="1"/>
  <line x1="155" y1="0" x2="155" y2="360" stroke="#9ca3af" stroke-width="1.5" stroke-dasharray="6,5"/>
  <line x1="347" y1="0" x2="347" y2="360" stroke="#9ca3af" stroke-width="1.5" stroke-dasharray="6,5"/>
  <line x1="555" y1="0" x2="555" y2="360" stroke="#9ca3af" stroke-width="1.5" stroke-dasharray="6,5"/>
  <line x1="763" y1="0" x2="763" y2="360" stroke="#9ca3af" stroke-width="1.5" stroke-dasharray="6,5"/>
  <path d="M 0,355 C 100,352 140,346 155,342 C 168,306 198,250 212,243 C 228,295 260,308 272,303 C 308,284 345,240 355,228 C 372,175 408,68 424,62 C 440,102 468,238 477,126 C 492,98 505,84 510,85 C 528,108 542,104 555,85 C 574,50 617,12 632,10 C 648,42 677,250 685,68 C 703,46 737,22 763,14 C 776,10 792,12 800,13"
        stroke="#17202a" stroke-width="2.5" fill="none"/>
  <path d="M 0,320 C 40,305 80,285 105,38 C 118,230 148,308 165,318 C 155,345 158,350 165,318 C 200,295 265,240 298,185 C 315,58 338,38 350,32 C 362,180 390,305 408,315 C 350,340 348,345 408,315 C 445,290 490,225 510,52 C 524,195 545,305 560,315 C 548,342 548,345 560,315 C 598,280 648,235 668,210 C 690,60 720,35 735,28 C 748,150 768,290 780,305 C 790,312 797,316 800,318"
        stroke="#6366f1" stroke-width="2.5" fill="none" opacity="0.95"/>
</svg>
