<svg xmlns="http://www.w3.org/2000/svg" viewBox="0 0 320 180" role="img" aria-label="VDD Multiple chart thumbnail">
  <rect width="320" height="180" rx="8" fill="#fff"/>
  <path d="M0 45h320M0 90h320M0 135h320" stroke="#e5e7eb"/>
  <rect x="28" y="116" width="18" height="22" fill="#22c55e"/><rect x="58" y="94" width="18" height="44" fill="#84cc16"/><rect x="88" y="72" width="18" height="66" fill="#f59e0b"/><rect x="118" y="42" width="18" height="96" fill="#ef4444"/><rect x="148" y="86" width="18" height="52" fill="#f59e0b"/><rect x="178" y="112" width="18" height="26" fill="#22c55e"/><rect x="208" y="78" width="18" height="60" fill="#f59e0b"/><rect x="238" y="50" width="18" height="88" fill="#ef4444"/>
  <path d="M0 138C48 118 76 54 116 44C156 34 171 132 214 118C256 104 272 62 320 70" fill="none" stroke="#111827" stroke-width="3.4" stroke-linecap="round"/>
</svg>
